<?xml version="1.0" encoding="UTF-8" standalone="no"?>
<svg width="10px" height="10px" viewBox="0 0 10 10" version="1.1" xmlns="http://www.w3.org/2000/svg" xmlns:xlink="http://www.w3.org/1999/xlink">
    <!-- Generator: Sketch 3.7.1 (28215) - http://www.bohemiancoding.com/sketch -->
    <title>icons/external-link</title>
    <desc>Created with Sketch.</desc>
    <defs></defs>
    <g id="Page-1" stroke="none" stroke-width="1" fill="none" fill-rule="evenodd">
        <g id="Edit-row" transform="translate(-421.000000, -401.000000)">
            <g id="icons/external-link" transform="translate(421.000000, 401.000000)">
                <path d="M5.75,1.17493333 L5.75,1.75" id="Stroke-1" stroke="#000000" stroke-width="0.1875"></path>
                <path d="M9.8568,0.478666667 C9.85413333,0.4672 9.85213333,0.456266667 9.84946667,0.445333333 C9.84586667,0.433866667 9.84213333,0.4224 9.838,0.410933333 C9.836,0.404666667 9.8344,0.3984 9.83173333,0.392133333 C9.83026667,0.389066667 9.82866667,0.386 9.82706667,0.3828 C9.8224,0.3708 9.81613333,0.359866667 9.80986667,0.348933333 C9.80466667,0.340133333 9.80053333,0.3312 9.7948,0.3224 C9.78853333,0.312533333 9.78066667,0.303066667 9.774,0.2932 C9.7672,0.284933333 9.76093333,0.277066667 9.75466667,0.2688 C9.7464,0.259333333 9.73746667,0.251066667 9.72866667,0.242666667 C9.72186667,0.236 9.71453333,0.228666667 9.70733333,0.2224 C9.69786667,0.214 9.68746667,0.2068 9.67706667,0.198933333 C9.66933333,0.1932 9.662,0.187466667 9.6536,0.1828 C9.6432,0.176 9.63173333,0.169733333 9.6208,0.164 C9.612,0.159333333 9.60306667,0.154666667 9.5948,0.151066667 C9.59066667,0.148933333 9.5864,0.146933333 9.5828,0.1448 C9.57546667,0.1416 9.5672,0.140133333 9.55933333,0.137466667 C9.55,0.1344 9.54066667,0.1312 9.53066667,0.128133333 C9.51826667,0.124533333 9.50626667,0.1224 9.49373333,0.119733333 C9.4844,0.117733333 9.47493333,0.116133333 9.46506667,0.115066667 C9.45213333,0.1136 9.43906667,0.113066667 9.426,0.112533333 C9.41973333,0.112533333 9.414,0.111466667 9.40733333,0.111466667 L6.37706667,0.130666667 C6.12346667,0.132266667 5.92026667,0.338533333 5.92186667,0.5912 C5.924,0.843733333 6.13026667,1.04733333 6.38226667,1.04586667 L8.30826667,1.03386667 L5.3292,4.05 C5.21773333,4.16253333 5.17653333,4.31773333 5.20573333,4.462 C5.22293333,4.5484 5.26506667,4.6312 5.3328,4.69786667 C5.4224,4.7864 5.54013333,4.83026667 5.65733333,4.82973333 C5.77453333,4.8292 5.8912,4.78386667 5.98026667,4.69373333 L8.9588,1.67813333 L8.9708,3.6036 C8.9724,3.85573333 9.1776,4.05986667 9.4312,4.0584 C9.55786667,4.05786667 9.67186667,4.00573333 9.75466667,3.9224 C9.8364,3.83906667 9.88693333,3.72453333 9.8864,3.5984 L9.86773333,0.566666667 C9.86773333,0.5604 9.86613333,0.554133333 9.86613333,0.547866667 C9.86506667,0.535466667 9.86453333,0.522933333 9.86306667,0.5104 C9.86146667,0.498933333 9.85933333,0.489066667 9.8568,0.478666667 L9.8568,0.478666667 Z" id="Fill-2" fill="#000000"></path>
                <path d="M0.654133333,8.32813333 C0.654133333,8.9 1.11773333,9.3636 1.6896,9.3636 L7.25106667,9.36973333 C7.82293333,9.36973333 8.2864,8.90626667 8.2864,8.3344 L8.2776,4.25626667 L8.8912,4.25626667 L8.8912,8.3412 C8.8912,9.24266667 8.1604,9.97293333 7.25933333,9.97293333 L1.62346667,9.96613333 C0.7636,9.96613333 0.0672,9.26933333 0.0672,8.40986667 L0.0584,2.78226667 C0.0584,1.88066667 0.789066667,1.15053333 1.69013333,1.15053333 L5.8036,1.14213333 L5.8036,1.75626667 L1.69786667,1.7536 C1.126,1.7536 0.662533333,2.2172 0.662533333,2.78906667 L0.654133333,8.32813333 Z" id="Fill-3" fill="#000000"></path>
            </g>
        </g>
    </g>
</svg>