<?xml version="1.0" encoding="UTF-8" standalone="no"?>
<svg width="34px" height="32px" viewBox="0 0 34 32" version="1.1" xmlns="http://www.w3.org/2000/svg" xmlns:xlink="http://www.w3.org/1999/xlink">
    <!-- Generator: Sketch 3.8.1 (29687) - http://www.bohemiancoding.com/sketch -->
    <title>search</title>
    <desc>Created with Sketch.</desc>
    <defs></defs>
    <g id="Page-1" stroke="none" stroke-width="1" fill="none" fill-rule="evenodd">
        <g id="Artboard-3" transform="translate(-105.000000, -246.000000)" fill="#343434">
            <path d="M125.334045,250.079 C120.494045,245.504 112.865045,245.719 108.295045,250.559 C103.721045,255.399 103.935045,263.028 108.775045,267.598 C113.404045,271.977 120.588045,271.957 125.205045,267.703 L136.095045,278 L138.084045,275.899 L127.084045,265.5 C130.275045,260.703 129.662045,254.168 125.334045,250.079 L125.334045,250.079 Z M124.674045,266.039 C120.693045,270.246 114.056045,270.434 109.849045,266.457 C105.642045,262.477 105.455045,255.84 109.431045,251.633 C113.408045,247.422 120.049045,247.239 124.256045,251.215 C128.467045,255.196 128.650045,261.832 124.674045,266.039 L124.674045,266.039 Z" id="search"></path>
        </g>
    </g>
</svg>